<svg width="104" height="35" viewBox="0 0 104 35" fill="none" xmlns="http://www.w3.org/2000/svg">
<path d="M15.752 0.0159998V0.975999C14.664 1.008 13.832 1.136 13.256 1.36C12.712 1.552 12.344 1.936 12.152 2.512C11.96 3.056 11.864 3.92 11.864 5.104V29.488C11.864 30.48 11.928 31.216 12.056 31.696C12.216 32.176 12.504 32.496 12.92 32.656C13.368 32.816 14.024 32.896 14.888 32.896H17.24C18.328 32.896 19.352 32.64 20.312 32.128C21.272 31.616 22.136 30.896 22.904 29.968C23.672 29.008 24.312 27.872 24.824 26.56C25.336 25.248 25.72 23.792 25.976 22.192H27.08C26.984 23.28 26.936 24.688 26.936 26.416C26.936 27.152 26.952 28.224 26.984 29.632C27.016 31.04 27.112 32.496 27.272 34C25.64 33.936 23.8 33.904 21.752 33.904C19.704 33.872 17.88 33.856 16.28 33.856C15.48 33.856 14.456 33.856 13.208 33.856C11.96 33.856 10.616 33.872 9.176 33.904C7.736 33.904 6.28 33.92 4.808 33.952C3.336 33.952 1.944 33.968 0.632 34V33.04C1.656 32.976 2.424 32.848 2.936 32.656C3.448 32.464 3.784 32.08 3.944 31.504C4.136 30.928 4.232 30.064 4.232 28.912V5.104C4.232 3.92 4.136 3.056 3.944 2.512C3.784 1.936 3.432 1.552 2.888 1.36C2.376 1.136 1.624 1.008 0.632 0.975999V0.0159998C1.432 0.0479994 2.504 0.079999 3.848 0.111999C5.224 0.143998 6.68 0.159998 8.216 0.159998C9.624 0.159998 11 0.143998 12.344 0.111999C13.72 0.079999 14.856 0.0479994 15.752 0.0159998ZM36.1198 34.336C34.6798 34.336 33.4798 34.064 32.5198 33.52C31.5598 32.976 30.8558 32.256 30.4078 31.36C29.9598 30.432 29.7358 29.424 29.7358 28.336C29.7358 26.96 30.0398 25.84 30.6478 24.976C31.2878 24.112 32.1038 23.408 33.0958 22.864C34.0878 22.32 35.1278 21.872 36.2158 21.52C37.3358 21.168 38.3918 20.832 39.3838 20.512C40.4078 20.16 41.2238 19.76 41.8318 19.312C42.4718 18.832 42.7918 18.224 42.7918 17.488V13.744C42.7918 12.912 42.6478 12.176 42.3598 11.536C42.1038 10.864 41.6878 10.352 41.1118 10C40.5678 9.648 39.8478 9.472 38.9518 9.472C38.3118 9.472 37.6718 9.568 37.0318 9.76C36.3918 9.92 35.8638 10.208 35.4478 10.624C36.3438 10.944 37.0318 11.44 37.5118 12.112C38.0238 12.752 38.2798 13.488 38.2798 14.32C38.2798 15.408 37.8958 16.272 37.1278 16.912C36.3918 17.552 35.5118 17.872 34.4878 17.872C33.3358 17.872 32.4558 17.52 31.8478 16.816C31.2718 16.08 30.9838 15.2 30.9838 14.176C30.9838 13.248 31.2078 12.48 31.6558 11.872C32.1358 11.264 32.7918 10.688 33.6238 10.144C34.5198 9.632 35.5918 9.232 36.8398 8.944C38.1198 8.656 39.4958 8.512 40.9678 8.512C42.4398 8.512 43.7678 8.672 44.9518 8.992C46.1358 9.28 47.1278 9.824 47.9278 10.624C48.6638 11.36 49.1438 12.272 49.3678 13.36C49.5918 14.416 49.7038 15.76 49.7038 17.392V30.448C49.7038 31.248 49.7838 31.808 49.9438 32.128C50.1038 32.416 50.3758 32.56 50.7598 32.56C51.0478 32.56 51.3198 32.48 51.5758 32.32C51.8638 32.16 52.1678 31.968 52.4878 31.744L52.9678 32.56C52.2958 33.136 51.5118 33.584 50.6158 33.904C49.7518 34.192 48.7758 34.336 47.6878 34.336C46.5038 34.336 45.5598 34.176 44.8558 33.856C44.1518 33.504 43.6398 33.04 43.3198 32.464C43.0318 31.888 42.8878 31.216 42.8878 30.448C42.1198 31.664 41.1918 32.624 40.1038 33.328C39.0158 34 37.6878 34.336 36.1198 34.336ZM39.5278 31.264C40.1678 31.264 40.7438 31.12 41.2558 30.832C41.7998 30.512 42.3118 30 42.7918 29.296V19.456C42.5038 19.936 42.1038 20.368 41.5918 20.752C41.0798 21.136 40.5358 21.536 39.9598 21.952C39.3838 22.336 38.8238 22.768 38.2798 23.248C37.7678 23.728 37.3518 24.32 37.0318 25.024C36.7118 25.728 36.5518 26.576 36.5518 27.568C36.5518 28.816 36.8238 29.744 37.3678 30.352C37.9118 30.96 38.6318 31.264 39.5278 31.264ZM72.1955 8.512C73.5395 8.512 74.6275 8.688 75.4595 9.04C76.3235 9.36 76.9955 9.808 77.4755 10.384C77.9875 10.992 78.3555 11.776 78.5795 12.736C78.8355 13.696 78.9635 14.992 78.9635 16.624V29.536C78.9635 30.88 79.1875 31.792 79.6355 32.272C80.1155 32.752 80.9155 32.992 82.0355 32.992V34C81.4275 33.968 80.5155 33.936 79.2995 33.904C78.0835 33.84 76.8835 33.808 75.6995 33.808C74.4835 33.808 73.2835 33.84 72.0995 33.904C70.9475 33.936 70.0675 33.968 69.4595 34V32.992C70.4195 32.992 71.0915 32.752 71.4755 32.272C71.8595 31.792 72.0515 30.88 72.0515 29.536V14.608C72.0515 13.808 71.9715 13.12 71.8115 12.544C71.6515 11.936 71.3635 11.472 70.9475 11.152C70.5315 10.8 69.9075 10.624 69.0755 10.624C68.2115 10.624 67.4115 10.864 66.6755 11.344C65.9715 11.824 65.3955 12.496 64.9475 13.36C64.5315 14.192 64.3235 15.136 64.3235 16.192V29.536C64.3235 30.88 64.5155 31.792 64.8995 32.272C65.3155 32.752 65.9875 32.992 66.9155 32.992V34C66.3395 33.968 65.4915 33.936 64.3715 33.904C63.2835 33.84 62.1475 33.808 60.9635 33.808C59.7475 33.808 58.4995 33.84 57.2195 33.904C55.9395 33.936 54.9795 33.968 54.3395 34V32.992C55.4595 32.992 56.2435 32.752 56.6915 32.272C57.1715 31.792 57.4115 30.88 57.4115 29.536V14.416C57.4115 12.976 57.1875 11.92 56.7395 11.248C56.3235 10.544 55.5235 10.192 54.3395 10.192V9.184C55.3635 9.28 56.3555 9.328 57.3155 9.328C58.6595 9.328 59.9075 9.28 61.0595 9.184C62.2435 9.056 63.3315 8.88 64.3235 8.656V12.976C65.1235 11.344 66.2115 10.192 67.5875 9.52C68.9635 8.848 70.4995 8.512 72.1955 8.512ZM103.984 8.944L91.9839 33.28H94.4799C95.7279 33.28 96.8959 33.024 97.9839 32.512C99.1039 31.968 100.032 31.072 100.768 29.824C101.536 28.576 102 26.864 102.16 24.688H103.168C103.168 27.024 103.184 28.944 103.216 30.448C103.248 31.92 103.296 33.168 103.36 34.192C101.92 34.128 100.416 34.08 98.8479 34.048C97.2799 34.016 95.7119 34 94.1439 34C92.5119 34 90.8319 34.016 89.1039 34.048C87.3759 34.112 85.7279 34.176 84.1599 34.24L96.1599 9.904H93.4719C92.1919 9.904 91.0079 10.176 89.9199 10.72C88.8639 11.232 87.9839 12.128 87.2799 13.408C86.6079 14.656 86.1759 16.352 85.9839 18.496H84.9759C84.9759 16.128 84.9599 14.208 84.9279 12.736C84.8959 11.264 84.8479 10.016 84.7839 8.992C86.2559 9.056 87.7759 9.104 89.3439 9.136C90.9119 9.168 92.4639 9.184 93.9999 9.184C95.6639 9.184 97.3439 9.168 99.0399 9.136C100.768 9.072 102.416 9.008 103.984 8.944Z" fill="#141414"/>
</svg>
